<svg class="svg-icon" style="width: 1em;height: 1em;vertical-align: middle;fill: currentColor;overflow: hidden;" viewBox="0 0 1024 1024" version="1.1" xmlns="http://www.w3.org/2000/svg"><path d="M689.913345 886.121151h165.046794v-375.880763c-20.497747-37.446101-36.203813-68.592028-81.014905-68.592028-54.12825 0-17.924437 30.436049-84.031889 68.592028v375.880763z m-327.786482-622.918544c-86.960139 0-100.004159 69.213172-105.239515 146.767417-1.064818 15.617331-1.774697 31.589601-2.75078 47.473137v428.944194h234.70364v-428.944194c2.484575-83.144541-34.517851-194.240555-126.713345-194.240554z" fill="#A1B0E4" /><path d="M82.168458 679.368984h-0.976084l0.532409-8.607279c0.088735 0 12.422877 0.443674 34.429116-9.050953 20.409012-8.784749 53.507106-28.217678 95.478683-70.455459 32.743154-33.009359 36.115078-94.32513 39.398267-153.6 4.880416-87.847487 9.849567-178.711958 111.184749-178.711959 29.992374 0 56.080416 11.269324 77.731716 33.630503 42.326516 43.657539 55.636742 116.952513 54.128249 166.555286-1.064818 35.760139 14.020104 74.271057 39.575737 100.536569 19.07799 19.610399 42.237782 30.436049 65.220104 30.436048 37.80104 0 52.176083-27.507799 64.77643-51.732409 6.921317-13.310225 12.955286-24.845754 22.183708-30.169844 30.702253-17.746967 38.688388-33.541768 45.077297-46.142114 7.8974-15.706066 13.842634-24.579549 43.12513-24.57955 21.118891 0 37.97851 8.07487 53.152166 25.378163 13.22149 15.084922 23.514731 35.493934 34.517851 57.056499 17.303293 34.162912 37.002426 72.8513 72.496361 97.963259l-4.969151 7.010051c-37.268631-26.354246-57.411438-66.107452-75.247141-101.157712-21.207626-41.705373-39.487002-77.731716-80.038821-77.731716-25.378163 0-28.750087 6.655113-35.405199 19.787869-6.566378 12.955286-15.528596 30.702253-48.44922 49.780242-7.010052 4.081802-12.511612 14.552513-18.811786 26.709186-13.132756 25.111958-29.371231 56.34662-72.407625 56.34662-25.378163 0-50.756326-11.712998-71.431543-33.098093-27.064125-27.862738-43.12513-68.769497-41.971577-106.748007 1.419757-47.828076-11.180589-118.54974-51.643674-160.255113-19.965338-20.586482-44.012478-30.968458-71.520277-30.968457-93.171577 0-97.785789 82.878336-102.57747 170.637088-3.371924 60.872097-6.832582 123.87383-41.882842 159.190295-78.35286 78.707799-128.044367 81.990988-135.675563 81.990987z" fill="#526ECD" /><path d="M690.532714 886.032416h-4.259272v-21.47383h4.259272v21.47383z m0-26.79792h-4.259272v-21.47383h4.259272v21.47383z m0-26.797921h-4.259272v-21.47383h4.259272v21.47383z m0-26.886655h-4.259272v-21.47383h4.259272v21.47383z m0-26.79792h-4.259272v-21.47383h4.259272v21.47383z m0-26.79792h-4.259272v-21.47383h4.259272v21.47383z m0-26.886655h-4.259272v-21.473831h4.259272v21.473831z m0-26.797921h-4.259272v-21.562565h4.259272v21.562565z m0-26.886655h-4.259272v-21.47383h4.259272v21.47383z m0-26.79792h-4.259272v-21.47383h4.259272v21.47383z m0-26.886655h-4.259272v-21.47383h4.259272v21.47383z m0-26.79792h-4.259272v-21.473831h4.259272v21.473831z m0-26.797921h-4.259272v-21.47383h4.259272v21.47383z m0-26.886655h-4.259272v-21.47383h4.259272v21.47383z m0-26.79792h-4.259272v-21.47383h4.259272v21.47383z m0-26.886655h-4.259272v-21.47383h4.259272v21.47383z m0-26.797921h-4.259272v-21.47383h4.259272v21.47383z m0-26.79792h-4.259272v-21.47383h4.259272v21.47383z m0-26.886655h-4.259272v-21.47383h4.259272v21.47383z m0-26.79792h-4.259272v-21.47383h4.259272v21.47383z m0-26.886655h-4.259272v-21.47383h4.259272v21.47383z m0-26.797921h-4.259272v-21.47383h4.259272v21.47383z m0-26.79792h-4.259272v-21.47383h4.259272v21.47383z m0-26.886655h-4.259272v-21.47383h4.259272v21.47383z m0-26.79792h-4.259272v-21.47383h4.259272v21.47383z m0-26.886655h-4.259272v-21.47383h4.259272v21.47383z m0-26.797921h-4.259272v-21.47383h4.259272v21.47383z m0-26.79792h-4.259272v-21.562565h4.259272v21.562565z m0-26.886655h-4.259272v-21.47383h4.259272v21.47383zM858.862697 886.032416h-4.259272v-21.47383h4.259272v21.47383z m0-26.79792h-4.259272v-21.47383h4.259272v21.47383z m0-26.797921h-4.259272v-21.47383h4.259272v21.47383z m0-26.886655h-4.259272v-21.47383h4.259272v21.47383z m0-26.79792h-4.259272v-21.47383h4.259272v21.47383z m0-26.79792h-4.259272v-21.47383h4.259272v21.47383z m0-26.886655h-4.259272v-21.473831h4.259272v21.473831z m0-26.797921h-4.259272v-21.562565h4.259272v21.562565z m0-26.886655h-4.259272v-21.47383h4.259272v21.47383z m0-26.79792h-4.259272v-21.47383h4.259272v21.47383z m0-26.886655h-4.259272v-21.47383h4.259272v21.47383z m0-26.79792h-4.259272v-21.473831h4.259272v21.473831z m0-26.797921h-4.259272v-21.47383h4.259272v21.47383z m0-26.886655h-4.259272v-21.47383h4.259272v21.47383z m0-26.79792h-4.259272v-21.47383h4.259272v21.47383z m0-26.886655h-4.259272v-21.47383h4.259272v21.47383z m0-26.797921h-4.259272v-21.47383h4.259272v21.47383z m0-26.79792h-4.259272v-21.47383h4.259272v21.47383z m0-26.886655h-4.259272v-21.47383h4.259272v21.47383z m0-26.79792h-4.259272v-21.47383h4.259272v21.47383z m0-26.886655h-4.259272v-21.47383h4.259272v21.47383z m0-26.797921h-4.259272v-21.47383h4.259272v21.47383z m0-26.79792h-4.259272v-21.47383h4.259272v21.47383z m0-26.886655h-4.259272v-21.47383h4.259272v21.47383z m0-26.79792h-4.259272v-21.47383h4.259272v21.47383z m0-26.886655h-4.259272v-21.47383h4.259272v21.47383z m0-26.797921h-4.259272v-21.47383h4.259272v21.47383z m0-26.79792h-4.259272v-21.562565h4.259272v21.562565z m0-26.886655h-4.259272v-21.47383h4.259272v21.47383zM492.910475 886.032416h-4.348007v-21.47383h4.259272v21.47383z m0-26.79792h-4.348007v-21.47383h4.259272v21.47383z m0-26.797921h-4.348007v-21.47383h4.259272v21.47383z m0-26.886655h-4.348007v-21.47383h4.259272v21.47383z m0-26.79792h-4.348007v-21.47383h4.259272v21.47383z m0-26.79792h-4.348007v-21.47383h4.259272v21.47383z m0-26.886655h-4.348007v-21.473831h4.259272v21.473831z m0-26.797921h-4.348007v-21.562565h4.259272v21.562565z m0-26.886655h-4.348007v-21.47383h4.259272v21.47383z m0-26.79792h-4.348007v-21.47383h4.259272v21.47383z m0-26.886655h-4.348007v-21.47383h4.259272v21.47383z m0-26.79792h-4.348007v-21.473831h4.259272v21.473831z m0-26.797921h-4.348007v-21.47383h4.259272v21.47383z m0-26.886655h-4.348007v-21.47383h4.259272v21.47383z m0-26.79792h-4.348007v-21.47383h4.259272v21.47383z m0-26.886655h-4.348007v-21.47383h4.259272v21.47383z m0-26.797921h-4.348007v-21.47383h4.259272v21.47383z m0-26.79792h-4.348007v-21.47383h4.259272v21.47383z m0-26.886655h-4.348007v-21.47383h4.259272v21.47383z m0-26.79792h-4.348007v-21.47383h4.259272v21.47383z m0-26.886655h-4.348007v-21.47383h4.259272v21.47383z m0-26.797921h-4.348007v-21.47383h4.259272v21.47383z m0-26.79792h-4.348007v-21.47383h4.259272v21.47383z m0-26.886655h-4.348007v-21.47383h4.259272v21.47383z m0-26.79792h-4.348007v-21.47383h4.259272v21.47383z m0-26.886655h-4.348007v-21.47383h4.259272v21.47383z m0-26.797921h-4.348007v-21.47383h4.259272v21.47383z m0-26.79792h-4.348007v-21.562565h4.259272v21.562565z m0-26.886655h-4.348007v-21.47383h4.259272v21.47383zM254.657442 886.032416h-4.259272v-21.47383h4.259272v21.47383z m0-26.79792h-4.259272v-21.47383h4.259272v21.47383z m0-26.797921h-4.259272v-21.47383h4.259272v21.47383z m0-26.886655h-4.259272v-21.47383h4.259272v21.47383z m0-26.79792h-4.259272v-21.47383h4.259272v21.47383z m0-26.79792h-4.259272v-21.47383h4.259272v21.47383z m0-26.886655h-4.259272v-21.473831h4.259272v21.473831z m0-26.797921h-4.259272v-21.562565h4.259272v21.562565z m0-26.886655h-4.259272v-21.47383h4.259272v21.47383z m0-26.79792h-4.259272v-21.47383h4.259272v21.47383z m0-26.886655h-4.259272v-21.47383h4.259272v21.47383z m0-26.79792h-4.259272v-21.473831h4.259272v21.473831z m0-26.797921h-4.259272v-21.47383h4.259272v21.47383z m0-26.886655h-4.259272v-21.47383h4.259272v21.47383z m0-26.79792h-4.259272v-21.47383h4.259272v21.47383z m0-26.886655h-4.259272v-21.47383h4.259272v21.47383z m0-26.797921h-4.259272v-21.47383h4.259272v21.47383z m0-26.79792h-4.259272v-21.47383h4.259272v21.47383z m0-26.886655h-4.259272v-21.47383h4.259272v21.47383z m0-26.79792h-4.259272v-21.47383h4.259272v21.47383z m0-26.886655h-4.259272v-21.47383h4.259272v21.47383z m0-26.797921h-4.259272v-21.47383h4.259272v21.47383z m0-26.79792h-4.259272v-21.47383h4.259272v21.47383z m0-26.886655h-4.259272v-21.47383h4.259272v21.47383z m0-26.79792h-4.259272v-21.47383h4.259272v21.47383z m0-26.886655h-4.259272v-21.47383h4.259272v21.47383z m0-26.797921h-4.259272v-21.47383h4.259272v21.47383z m0-26.79792h-4.259272v-21.562565h4.259272v21.562565z m0-26.886655h-4.259272v-21.47383h4.259272v21.47383z" fill="#7A8FD8" /><path d="M941.920277 913.096541l-5.679029-6.743848 18.279376-15.351126H76.400693v-765.42669l-15.351126 17.835702-6.743848-5.856499 26.97539-31.145927 26.088042 31.234662-6.832583 5.679029-15.262391-18.279376v757.085615H953.89948l-17.746967-15.262391 5.767764-6.743848 31.234662 26.886655z" fill="#666666" /></svg>